HIERARCHY
ROOT Hips
{
	OFFSET 0.00000 0.00000 0.00000
	CHANNELS 6 Xposition Yposition Zposition Zrotation Yrotation Xrotation 
	JOINT LHipJoint
	{
		OFFSET 0 0 0
		CHANNELS 3 Zrotation Yrotation Xrotation
		JOINT LeftUpLeg
		{
			OFFSET 1.77779 -1.88989 0.48267
			CHANNELS 3 Zrotation Yrotation Xrotation
			JOINT LeftLeg
			{
				OFFSET 2.53442 -6.96327 0.00000
				CHANNELS 3 Zrotation Yrotation Xrotation
				JOINT LeftFoot
				{
					OFFSET 2.71068 -7.44755 0.00000
					CHANNELS 3 Zrotation Yrotation Xrotation
					JOINT LeftToeBase
					{
						OFFSET 0.17992 -0.49431 2.22524
						CHANNELS 3 Zrotation Yrotation Xrotation
						End Site
						{
							OFFSET 0.00000 -0.00000 1.14687
						}
					}
				}
			}
		}
	}
	JOINT RHipJoint
	{
		OFFSET 0 0 0
		CHANNELS 3 Zrotation Yrotation Xrotation
		JOINT RightUpLeg
		{
			OFFSET -1.58469 -1.88989 0.48267
			CHANNELS 3 Zrotation Yrotation Xrotation
			JOINT RightLeg
			{
				OFFSET -2.60386 -7.15404 0.00000
				CHANNELS 3 Zrotation Yrotation Xrotation
				JOINT RightFoot
				{
					OFFSET -2.73334 -7.50979 0.00000
					CHANNELS 3 Zrotation Yrotation Xrotation
					JOINT RightToeBase
					{
						OFFSET -0.25618 -0.70384 2.21822
						CHANNELS 3 Zrotation Yrotation Xrotation
						End Site
						{
							OFFSET -0.00000 -0.00000 1.16381
						}
					}
				}
			}
		}
	}
	JOINT LowerBack
	{
		OFFSET 0 0 0
		CHANNELS 3 Zrotation Yrotation Xrotation
		JOINT Spine
		{
			OFFSET 0.03410 2.01612 -0.22230
			CHANNELS 3 Zrotation Yrotation Xrotation
			JOINT Spine1
			{
				OFFSET 0.03465 2.03012 0.00937
				CHANNELS 3 Zrotation Yrotation Xrotation
				JOINT Neck
				{
					OFFSET 0 0 0
					CHANNELS 3 Zrotation Yrotation Xrotation
					JOINT Neck1
					{
						OFFSET -0.00219 1.70459 0.20857
						CHANNELS 3 Zrotation Yrotation Xrotation
						JOINT Head
						{
							OFFSET 0.02518 1.72339 -0.22179
							CHANNELS 3 Zrotation Yrotation Xrotation
							End Site
							{
								OFFSET 0.00282 1.74122 -0.09823
							}
						}
					}
				}
				JOINT LeftShoulder
				{
					OFFSET 0 0 0
					CHANNELS 3 Zrotation Yrotation Xrotation
					JOINT LeftArm
					{
						OFFSET 3.36358 1.00547 -0.37661
						CHANNELS 3 Zrotation Yrotation Xrotation
						JOINT LeftForeArm
						{
							OFFSET 5.06507 -0.00000 0.00000
							CHANNELS 3 Zrotation Yrotation Xrotation
							JOINT LeftHand
							{
								OFFSET 3.60196 -0.00000 0.00000
								CHANNELS 3 Zrotation Yrotation Xrotation
								JOINT LeftFingerBase
								{
									OFFSET 0 0 0
									CHANNELS 3 Zrotation Yrotation Xrotation
									JOINT LeftHandIndex1
									{
										OFFSET 0.45035 -0.00000 0.00000
										CHANNELS 3 Zrotation Yrotation Xrotation
										End Site
										{
											OFFSET 0.36308 -0.00000 0.00000
										}
									}
								}
								JOINT LThumb
								{
									OFFSET 0 0 0
									CHANNELS 3 Zrotation Yrotation Xrotation
									End Site
									{
										OFFSET 0.36862 -0.00000 0.36862
									}
								}
							}
						}
					}
				}
				JOINT RightShoulder
				{
					OFFSET 0 0 0
					CHANNELS 3 Zrotation Yrotation Xrotation
					JOINT RightArm
					{
						OFFSET -3.50159 0.80383 -0.71526
						CHANNELS 3 Zrotation Yrotation Xrotation
						JOINT RightForeArm
						{
							OFFSET -5.36394 -0.00000 0.00000
							CHANNELS 3 Zrotation Yrotation Xrotation
							JOINT RightHand
							{
								OFFSET -3.58035 -0.00000 0.00000
								CHANNELS 3 Zrotation Yrotation Xrotation
								JOINT RightFingerBase
								{
									OFFSET 0 0 0
									CHANNELS 3 Zrotation Yrotation Xrotation
									JOINT RightHandIndex1
									{
										OFFSET -0.66375 -0.00000 0.00000
										CHANNELS 3 Zrotation Yrotation Xrotation
										End Site
										{
											OFFSET -0.53513 -0.00000 0.00000
										}
									}
								}
								JOINT RThumb
								{
									OFFSET 0 0 0
									CHANNELS 3 Zrotation Yrotation Xrotation
									End Site
									{
										OFFSET -0.54330 -0.00000 0.54330
									}
								}
							}
						}
					}
				}
			}
		}
	}
}
MOTION
Frames: 10
Frame Time: .0083333
5.3929 17.9983 8.5818 0.8042 -5.0013 -3.7121 0.0000 0.0000 0.0000 -24.7623 -4.8973 -8.2587 2.0743 9.0191 25.8552 -0.0094 -10.7199 -7.3695 0.9270 6.1338 17.1730 0.0000 0.0000 0.0000 20.4464 11.0655 -14.7114 -15.1937 -19.4369 75.8194 0.4011 -11.3376 -1.9351 -0.2866 -3.4431 9.5150 -0.9035 1.9078 12.4615 0.1961 2.4175 0.1802 0.2774 1.2128 -6.8519 -1.6878 -3.0243 -16.8252 1.9066 -4.1176 17.3791 0.4223 -1.8651 8.2448 -0.0000 0.0000 0.0000 -85.1879 4.4571 13.0945 12.8802 -21.1115 -2.4100 -0.0000 0.0000 -2.2243 26.9127 18.4581 9.1302 -7.1250 0.0000 -0.0000 -1.2228 50.4978 -0.1657 -0.0000 0.0000 0.0000 89.9319 1.4276 4.2003 -12.5720 20.6569 -2.3001 0.0000 0.0000 7.9986 -17.4218 21.1247 -6.4523 7.1250 -0.0000 -0.0000 7.1172 -8.0738 6.0956
5.3959 18.0021 8.7536 0.7928 -4.8245 -3.6543 0.0000 0.0000 0.0000 -24.8977 -4.8008 -7.4899 2.0145 8.8962 25.4712 0.0148 -10.7074 -7.7366 1.0541 6.5283 18.3254 0.0000 0.0000 0.0000 20.2958 11.3318 -15.9199 -15.1406 -19.4242 75.6597 0.4011 -11.1700 -3.2666 -0.3255 -3.6668 10.1411 -0.8819 1.7739 12.4114 0.1878 2.2427 0.1549 0.2895 1.1268 -6.8468 -1.6631 -3.0038 -16.5227 1.9028 -4.0938 17.1521 0.4256 -1.8570 8.1142 -0.0000 0.0000 0.0000 -84.8450 4.2793 13.9343 13.1354 -21.4853 -2.5027 -0.0000 0.0000 -3.2229 27.3612 17.5957 8.8911 -7.1250 0.0000 -0.0000 -0.6143 49.6296 -0.0701 -0.0000 0.0000 0.0000 90.0847 1.2148 4.2498 -12.5467 20.6195 -2.2912 0.0000 0.0000 7.3337 -16.7649 20.3570 -5.9825 7.1250 -0.0000 -0.0000 7.4949 -8.9436 6.2941
5.3993 18.0037 8.9294 0.8555 -4.5632 -3.6500 0.0000 0.0000 0.0000 -25.1106 -4.5505 -6.7349 1.9644 8.7914 25.1451 0.0305 -10.8678 -8.0820 0.9810 6.3046 17.6710 0.0000 0.0000 0.0000 20.0657 11.4192 -17.0015 -15.0165 -19.3938 75.2863 0.3729 -10.7663 -4.6091 -0.2474 -3.2005 8.8374 -0.9704 1.5797 12.3637 0.2113 1.9741 0.2098 0.4153 0.9988 -6.7613 -1.5091 -2.9880 -16.6636 1.5655 -4.0404 17.1636 0.2926 -1.8549 8.1308 -0.0000 -0.0000 0.0000 -84.5618 3.9253 14.7225 13.3434 -21.7884 -2.5794 -0.0000 0.0000 -4.2041 27.6174 16.8296 8.6133 -7.1250 0.0000 -0.0000 -0.2325 48.8283 -0.0220 -0.0000 -0.0000 0.0000 90.1633 1.1952 4.0029 -12.5284 20.5923 -2.2847 0.0000 0.0000 7.0627 -16.1608 20.0302 -5.6684 7.1250 -0.0000 -0.0000 7.8673 -9.3511 6.5481
5.4036 18.0127 9.1059 1.1618 -4.3129 -3.7728 0.0000 0.0000 0.0000 -25.6279 -4.4581 -5.8310 1.9389 8.7376 24.9779 0.0722 -10.8310 -8.6619 0.9358 6.1620 17.2552 0.0000 0.0000 0.0000 19.5756 11.3809 -17.9567 -14.8387 -19.3489 74.7502 0.3291 -10.2658 -5.6992 -0.1874 -2.7882 7.6897 -1.2038 1.4749 12.4435 0.1055 1.7931 0.2494 0.4667 0.9160 -6.7648 -1.4774 -2.9693 -16.7350 1.5462 -4.0226 17.3617 0.2807 -1.8444 8.2084 -0.0000 -0.0000 0.0000 -84.1499 3.6691 15.4815 13.6412 -22.2194 -2.6909 -0.0000 0.0000 -4.1839 27.5749 18.4111 9.3659 -7.1250 0.0000 -0.0000 -0.5498 50.5615 -0.0753 -0.0000 -0.0000 0.0000 90.3931 1.0383 3.3585 -12.5213 20.5818 -2.2822 0.0000 0.0000 7.2760 -15.5908 20.4455 -5.5671 7.1250 -0.0000 -0.0000 8.2512 -8.9974 6.9335
5.4040 18.0147 9.2767 1.1950 -4.0918 -3.7584 0.0000 0.0000 0.0000 -25.7897 -4.4646 -5.1483 1.9246 8.7073 24.8839 0.0923 -10.7613 -8.9015 0.9685 6.2655 17.5566 0.0000 0.0000 0.0000 19.4223 11.5118 -19.0254 -14.6237 -19.2924 74.1007 0.2776 -9.8005 -6.9251 -0.2034 -2.9042 8.0122 -1.2762 1.3558 12.4477 0.1272 1.6261 0.2978 0.5613 0.8367 -6.7151 -1.5721 -2.9203 -16.8572 1.6576 -3.9545 17.4578 0.3391 -1.8054 8.2658 -0.0000 -0.0000 0.0000 -83.8712 3.2059 16.0187 13.9838 -22.7115 -2.8218 -0.0000 0.0000 -3.8794 28.0872 22.9261 11.7437 -7.1250 0.0000 -0.0000 -1.0481 55.5904 -0.2724 -0.0000 -0.0000 0.0000 90.4379 0.9972 3.3165 -12.4915 20.5377 -2.2718 0.0000 0.0000 7.2120 -15.5610 20.8657 -5.6644 7.1250 -0.0000 -0.0000 8.2887 -8.5747 7.0362
5.4057 18.0028 9.4412 1.1331 -3.8565 -3.5162 0.0000 0.0000 0.0000 -25.8009 -4.4331 -4.8171 1.9164 8.6897 24.8293 0.0997 -10.8339 -9.0461 1.0546 6.5299 18.3299 0.0000 0.0000 0.0000 19.3076 11.7575 -20.3797 -14.3899 -19.2280 73.3917 0.2145 -9.3199 -8.1811 -0.2141 -2.9792 8.2208 -1.2633 1.2011 12.3471 0.1827 1.4275 0.2046 0.6495 0.7410 -6.7544 -1.6112 -2.9000 -16.7799 1.6704 -3.9185 17.3791 0.3557 -1.7909 8.2262 -0.0000 0.0000 0.0000 -83.6042 2.7932 16.2031 13.9552 -22.6706 -2.8108 -0.0000 0.0000 -3.9702 27.2540 20.6897 10.3147 -7.1250 0.0000 -0.0000 -1.3603 52.9917 -0.2675 -0.0000 0.0000 0.0000 90.4286 0.8544 3.3607 -12.4434 20.4662 -2.2549 0.0000 0.0000 7.1595 -15.6089 20.8827 -5.6870 7.1250 -0.0000 -0.0000 8.2590 -8.5515 7.0143
5.4060 17.9805 9.6094 1.2114 -3.5354 -3.4017 0.0000 0.0000 0.0000 -25.9555 -4.1847 -4.4372 1.9376 8.7349 24.9694 0.1301 -11.4211 -9.7881 0.9632 6.2490 17.5086 0.0000 0.0000 0.0000 19.0545 11.7848 -21.5409 -14.1151 -19.1486 72.5557 0.1477 -8.8478 -9.2691 -0.1566 -2.5495 7.0269 -1.3586 1.0539 12.3235 0.1975 1.2198 0.1596 0.7563 0.6434 -6.7867 -1.7092 -2.9068 -16.8708 1.6947 -3.9084 17.4690 0.3792 -1.7889 8.2749 0.0000 0.0000 0.0000 -83.3671 2.3807 16.5741 14.0505 -22.8068 -2.8476 -0.0000 0.0000 -4.2201 26.9105 19.8878 9.7962 -7.1250 0.0000 -0.0000 -1.5283 52.0550 -0.2655 0.0000 0.0000 0.0000 90.4498 0.7553 3.2730 -12.3393 20.3115 -2.2187 0.0000 0.0000 7.1635 -15.6536 21.2355 -5.7953 7.1250 -0.0000 -0.0000 8.2470 -8.1882 7.0639
5.4023 17.9599 9.7835 1.3842 -3.2332 -3.4262 0.0000 0.0000 0.0000 -26.2309 -4.0078 -3.8830 1.9706 8.8045 25.1858 0.1758 -11.9285 -10.6344 1.0651 6.5613 18.4220 0.0000 0.0000 0.0000 18.7474 11.6788 -22.4411 -13.7782 -19.0454 71.5261 0.0747 -8.3887 -10.3457 -0.0862 -1.8939 5.2125 -1.5838 0.9362 12.3460 0.1899 1.0307 0.2363 0.9099 0.5574 -6.7169 -1.7732 -2.8875 -17.2707 1.7407 -3.8728 17.6656 0.4029 -1.7670 8.4137 -0.0000 -0.0000 0.0000 -83.1275 1.7511 16.9180 14.1281 -22.9175 -2.8778 -0.0000 0.0000 -4.1954 26.6606 18.9262 9.2495 -7.1250 0.0000 -0.0000 -1.5717 50.9639 -0.2310 -0.0000 -0.0000 0.0000 90.4764 0.4396 3.7140 -12.5537 20.6298 -2.2936 0.0000 0.0000 6.7329 -15.4971 21.6955 -5.8523 7.1250 -0.0000 -0.0000 8.3684 -7.7416 7.2446
5.3991 17.9425 9.9450 1.4123 -2.9589 -3.3303 0.0000 0.0000 0.0000 -26.3472 -4.0354 -3.4236 1.9847 8.8341 25.2778 0.2217 -11.8555 -11.1359 1.1148 6.7076 18.8518 0.0000 0.0000 0.0000 18.5989 11.6515 -23.5449 -13.3843 -18.9166 70.3151 0.0151 -8.0683 -11.1899 -0.0208 -0.9317 2.5609 -1.7058 0.7870 12.3259 0.2526 0.8201 0.2627 1.0833 0.4590 -6.6741 -1.7350 -2.8532 -17.2773 1.6078 -3.8031 17.4741 0.3617 -1.7466 8.3453 -0.0000 -0.0000 0.0000 -82.8498 1.3081 17.5116 14.3979 -23.3006 -2.9837 -0.0000 0.0000 -4.4473 26.5423 18.3776 8.9496 -7.1250 0.0000 -0.0000 -1.5768 50.3462 -0.2078 -0.0000 -0.0000 0.0000 90.4161 0.1770 4.2693 -12.7345 20.8969 -2.3577 0.0000 0.0000 6.4437 -15.5749 22.0589 -5.9760 7.1250 -0.0000 -0.0000 8.3376 -7.3636 7.2798
5.3955 17.9334 10.1032 1.3998 -2.6528 -3.2098 0.0000 0.0000 0.0000 -26.4180 -4.0578 -3.0208 1.9934 8.8523 25.3345 0.2605 -11.7851 -11.5465 1.1250 6.7373 18.9394 0.0000 0.0000 0.0000 18.5011 11.6039 -24.6316 -12.9202 -18.7532 68.8776 -0.0267 -7.8533 -11.7403 -0.0078 -0.5712 1.5697 -1.7294 0.6554 12.3627 0.3162 0.6453 0.2170 1.1946 0.3763 -6.7389 -1.7404 -2.8898 -17.0552 1.4047 -3.8103 17.3367 0.2977 -1.7740 8.2556 0.0000 0.0000 0.0000 -82.5432 0.9064 18.3256 14.5846 -23.5642 -3.0579 -0.0000 0.0000 -5.0370 26.6659 19.7297 9.6222 -7.1250 0.0000 -0.0000 -1.7423 51.8382 -0.2934 0.0000 0.0000 0.0000 90.3463 0.1307 4.1994 -12.7010 20.8476 -2.3458 0.0000 0.0000 6.5876 -15.4818 22.0740 -5.9426 7.1250 -0.0000 -0.0000 8.3970 -7.3601 7.3334
